:FULLY-SPECIFIED
:FORCE-ALL-JOINTS-BE-3DOF
:DEGREES
611
root 5.95678 16.2944 -2.66861 -14.8842 63.5231 -22.7903
lfemur -19.7887 17.8582 -19.6309
ltibia 52.0293 0 0
lfoot -24.3953 9.62857 0
ltoes 0.0240369 0 0
rfemur -44.7001 -12.0432 20.0075
rtibia 53.7973 0 0
rfoot -0.416494 8.09775 0
rtoes -20.1936 0 0
lowerback 2.83681 -2.47377 -5.1553
upperback 0.944977 -3.44624 1.56869
thorax -0.326169 -1.75187 4.57851
lowerneck -6.56138 -11.0182 -2.82074
upperneck 10.8568 -15.3186 5.97964
head 5.15089 -7.22974 1.20494
lclavicle 2.17848e-14 -4.86258e-15 0
lhumerus -19.4939 -37.2808 85.2494
lradius 60.3018 0 0
lwrist 25.4666 0 0
lhand -17.1074 -1.95557 0
lfingers 7.12502 0 0
lthumb 9.13098 27.81 0
rclavicle 2.17848e-14 -4.86258e-15 0
rhumerus 8.57133 9.62606 -68.7329
rradius 119.12 0 0
rwrist -41.3351 0 0
rhand -27.5956 -26.4057 0
rfingers 7.12502 0 0
rthumb -0.99527 -776.384 0
612
root 5.94794 16.288 -2.6231 -14.3692 62.2588 -22.4114
lfemur -19.9171 18.0216 -19.6619
ltibia 52.4729 0 0
lfoot -23.9499 9.41303 0
ltoes 0.0368481 0 0
rfemur -44.734 -12.1284 20.1668
rtibia 54.0139 0 0
rfoot -0.793378 7.84269 0
rtoes -19.8311 0 0
lowerback 2.77618 -2.53872 -5.08174
upperback 0.896786 -3.53056 1.56076
thorax -0.342374 -1.79342 4.5278
lowerneck -6.62077 -10.9109 -2.76931
upperneck 10.7072 -15.1683 5.92514
head 5.10556 -7.16004 1.1929
lclavicle 2.16803e-14 -4.89316e-15 0
lhumerus -19.2611 -37.8194 85.2358
lradius 60.7195 0 0
lwrist 25.5061 0 0
lhand -17.023 -1.92641 0
lfingers 7.12502 0 0
lthumb 9.21237 27.8348 0
rclavicle 2.16803e-14 -4.89316e-15 0
rhumerus 7.61149 9.26487 -68.4429
rradius 118.265 0 0
rwrist -40.993 0 0
rhand -27.5943 -26.7597 0
rfingers 7.12502 0 0
rthumb -0.99406 -776.738 0
613
root 5.93911 16.2815 -2.5776 -13.8542 60.9945 -22.0325
lfemur -20.0454 18.185 -19.693
ltibia 52.9165 0 0
lfoot -23.5045 9.19749 0
ltoes 0.0496594 0 0
rfemur -44.7679 -12.2136 20.3261
rtibia 54.2305 0 0
rfoot -1.17026 7.58762 0
rtoes -19.4686 0 0
lowerback 2.71554 -2.60368 -5.00818
upperback 0.848595 -3.61487 1.55282
thorax -0.358579 -1.83496 4.47709
lowerneck -6.68015 -10.8037 -2.71789
upperneck 10.5575 -15.0181 5.87064
head 5.06023 -7.09034 1.18085
lclavicle 2.15758e-14 -4.92374e-15 0
lhumerus -19.0283 -38.3579 85.2221
lradius 61.1372 0 0
lwrist 25.5455 0 0
lhand -16.9386 -1.89725 0
lfingers 7.12502 0 0
lthumb 9.29376 27.8596 0
rclavicle 2.15758e-14 -4.92374e-15 0
rhumerus 6.65165 8.90368 -68.153
rradius 117.411 0 0
rwrist -40.6509 0 0
rhand -27.5931 -27.1137 0
rfingers 7.12502 0 0
rthumb -0.99285 -777.092 0
614
root 5.93028 16.2751 -2.53209 -13.3392 59.7302 -21.6536
lfemur -20.1738 18.3484 -19.7241
ltibia 53.3602 0 0
lfoot -23.0591 8.98195 0
ltoes 0.0624706 0 0
rfemur -44.8018 -12.2988 20.4854
rtibia 54.4472 0 0
rfoot -1.54715 7.33256 0
rtoes -19.106 0 0
lowerback 2.6549 -2.66863 -4.93462
upperback 0.800403 -3.69918 1.54488
thorax -0.374785 -1.87651 4.42638
lowerneck -6.73954 -10.6964 -2.66647
upperneck 10.4079 -14.8678 5.81614
head 5.0149 -7.02064 1.16881
lclavicle 2.14713e-14 -4.95432e-15 0
lhumerus -18.7955 -38.8964 85.2085
lradius 61.5549 0 0
lwrist 25.585 0 0
lhand -16.8542 -1.86809 0
lfingers 7.12502 0 0
lthumb 9.37515 27.8844 0
rclavicle 2.14713e-14 -4.95432e-15 0
rhumerus 5.69182 8.54249 -67.863
rradius 116.557 0 0
rwrist -40.3088 0 0
rhand -27.5918 -27.4677 0
rfingers 7.12502 0 0
rthumb -0.99164 -777.446 0
615
root 5.92144 16.2687 -2.48658 -12.8243 58.4659 -21.2747
lfemur -20.3022 18.5119 -19.7551
ltibia 53.8038 0 0
lfoot -22.6137 8.76641 0
ltoes 0.0752819 0 0
rfemur -44.8357 -12.384 20.6447
rtibia 54.6638 0 0
rfoot -1.92403 7.07749 0
rtoes -18.7435 0 0
lowerback 2.59427 -2.73358 -4.86106
upperback 0.752212 -3.7835 1.53694
thorax -0.39099 -1.91806 4.37566
lowerneck -6.79893 -10.5891 -2.61505
upperneck 10.2583 -14.7175 5.76164
head 4.96956 -6.95095 1.15676
lclavicle 2.13668e-14 -4.98491e-15 0
lhumerus -18.5627 -39.4349 85.1949
lradius 61.9726 0 0
lwrist 25.6244 0 0
lhand -16.7698 -1.83893 0
lfingers 7.12502 0 0
lthumb 9.45654 27.9092 0
rclavicle 2.13668e-14 -4.98491e-15 0
rhumerus 4.73198 8.18131 -67.573
rradius 115.703 0 0
rwrist -39.9667 0 0
rhand -27.5905 -27.8216 0
rfingers 7.12502 0 0
rthumb -0.99043 -777.799 0
616
root 5.91261 16.2622 -2.44108 -12.3093 57.2016 -20.8959
lfemur -20.4305 18.6753 -19.7862
ltibia 54.2475 0 0
lfoot -22.1683 8.55087 0
ltoes 0.0880931 0 0
rfemur -44.8696 -12.4692 20.804
rtibia 54.8804 0 0
rfoot -2.30091 6.82242 0
rtoes -18.381 0 0
lowerback 2.53363 -2.79853 -4.7875
upperback 0.70402 -3.86781 1.529
thorax -0.407195 -1.95961 4.32495
lowerneck -6.85832 -10.4819 -2.56362
upperneck 10.1087 -14.5672 5.70714
head 4.92423 -6.88125 1.14472
lclavicle 2.12623e-14 -5.01549e-15 0
lhumerus -18.33 -39.9735 85.1813
lradius 62.3903 0 0
lwrist 25.6639 0 0
lhand -16.6854 -1.80977 0
lfingers 7.12502 0 0
lthumb 9.53793 27.934 0
rclavicle 2.12623e-14 -5.01549e-15 0
rhumerus 3.77215 7.82012 -67.283
rradius 114.849 0 0
rwrist -39.6246 0 0
rhand -27.5893 -28.1756 0
rfingers 7.12502 0 0
rthumb -0.98922 -778.153 0
617
root 5.90378 16.2558 -2.39557 -11.7943 55.9373 -20.517
lfemur -20.5589 18.8387 -19.8173
ltibia 54.6911 0 0
lfoot -21.7229 8.33533 0
ltoes 0.100904 0 0
rfemur -44.9035 -12.5544 20.9633
rtibia 55.0971 0 0
rfoot -2.6778 6.56736 0
rtoes -18.0184 0 0
lowerback 2.47299 -2.86349 -4.71394
upperback 0.655829 -3.95212 1.52106
thorax -0.423401 -2.00115 4.27424
lowerneck -6.9177 -10.3746 -2.5122
upperneck 9.95907 -14.417 5.65264
head 4.8789 -6.81155 1.13267
lclavicle 2.11578e-14 -5.04607e-15 0
lhumerus -18.0972 -40.512 85.1676
lradius 62.8079 0 0
lwrist 25.7033 0 0
lhand -16.6011 -1.78061 0
lfingers 7.12502 0 0
lthumb 9.61932 27.9589 0
rclavicle 2.11578e-14 -5.04607e-15 0
rhumerus 2.81231 7.45893 -66.993
rradius 113.995 0 0
rwrist -39.2825 0 0
rhand -27.588 -28.5296 0
rfingers 7.12502 0 0
rthumb -0.98801 -778.507 0
